<svg width="422" height="98" viewBox="0 0 422 98" fill="none" xmlns="http://www.w3.org/2000/svg">
<path d="M50.5597 69H41.3324L55.392 28.2727H66.4886L80.5284 69H71.3011L61.0994 37.5795H60.7812L50.5597 69ZM49.983 52.9915H71.7784V59.7131H49.983V52.9915ZM85.4304 69V28.2727H101.499C104.574 28.2727 107.199 28.8229 109.374 29.9233C111.561 31.0104 113.225 32.5549 114.365 34.5568C115.518 36.5455 116.095 38.8854 116.095 41.5767C116.095 44.2812 115.512 46.608 114.345 48.5568C113.179 50.4924 111.488 51.9773 109.274 53.0114C107.073 54.0455 104.409 54.5625 101.28 54.5625H90.5213V47.642H99.8878C101.532 47.642 102.897 47.4167 103.984 46.9659C105.071 46.5152 105.88 45.839 106.411 44.9375C106.954 44.036 107.226 42.9157 107.226 41.5767C107.226 40.2244 106.954 39.0843 106.411 38.1562C105.88 37.2282 105.065 36.5256 103.964 36.0483C102.877 35.5578 101.505 35.3125 99.848 35.3125H94.0412V69H85.4304ZM107.425 50.4659L117.547 69H108.041L98.1378 50.4659H107.425ZM122.18 28.2727H132.8L144.016 55.6364H144.493L155.709 28.2727H166.328V69H157.976V42.4915H157.638L147.098 68.8011H141.411L130.871 42.392H130.533V69H122.18V28.2727ZM210.849 48.6364C210.849 53.0777 210.007 56.8561 208.323 59.9716C206.653 63.0871 204.372 65.4669 201.482 67.1108C198.605 68.7415 195.371 69.5568 191.778 69.5568C188.158 69.5568 184.91 68.7348 182.033 67.0909C179.156 65.447 176.883 63.0672 175.212 59.9517C173.542 56.8362 172.707 53.0644 172.707 48.6364C172.707 44.1951 173.542 40.4167 175.212 37.3011C176.883 34.1856 179.156 31.8125 182.033 30.1818C184.91 28.5379 188.158 27.7159 191.778 27.7159C195.371 27.7159 198.605 28.5379 201.482 30.1818C204.372 31.8125 206.653 34.1856 208.323 37.3011C210.007 40.4167 210.849 44.1951 210.849 48.6364ZM202.119 48.6364C202.119 45.7595 201.688 43.3333 200.826 41.358C199.978 39.3826 198.778 37.8845 197.227 36.8636C195.675 35.8428 193.859 35.3324 191.778 35.3324C189.696 35.3324 187.88 35.8428 186.329 36.8636C184.778 37.8845 183.571 39.3826 182.71 41.358C181.861 43.3333 181.437 45.7595 181.437 48.6364C181.437 51.5133 181.861 53.9394 182.71 55.9148C183.571 57.8902 184.778 59.3883 186.329 60.4091C187.88 61.4299 189.696 61.9403 191.778 61.9403C193.859 61.9403 195.675 61.4299 197.227 60.4091C198.778 59.3883 199.978 57.8902 200.826 55.9148C201.688 53.9394 202.119 51.5133 202.119 48.6364ZM251.293 28.2727V69H243.855L226.136 43.3665H225.838V69H217.227V28.2727H224.784L242.364 53.8864H242.722V28.2727H251.293ZM267.018 28.2727V69H258.407V28.2727H267.018ZM281.122 69H271.895L285.955 28.2727H297.051L311.091 69H301.864L291.662 37.5795H291.344L281.122 69ZM280.545 52.9915H302.341V59.7131H280.545V52.9915ZM337.028 28.2727L345.241 42.1534H345.559L353.812 28.2727H363.536L351.107 48.6364L363.815 69H353.911L345.559 55.0994H345.241L336.888 69H327.025L339.772 48.6364L327.263 28.2727H337.028ZM377.596 28.2727V69H368.985V28.2727H377.596Z" fill="#F3B414"/>
<path d="M0 0V-5H-5V0H0ZM422 0H427V-5H422V0ZM422 98V103H427V98H422ZM0 98H-5V103H0V98ZM0 5H422V-5H0V5ZM417 0V98H427V0H417ZM422 93H0V103H422V93ZM5 98V0H-5V98H5Z" fill="#F3B414"/>
</svg>
